HIERARCHY
ROOT Hips
{
	OFFSET -3.958830 18.904000 13.208200
	CHANNELS 6 Xposition Yposition Zposition Zrotation Yrotation Xrotation 
	JOINT LHipJoint
	{
		OFFSET 0.000000 0.000000 0.000000
		CHANNELS 3 Zrotation Yrotation Xrotation
		JOINT LeftUpLeg
		{
			OFFSET 1.800000 -1.400000 0.085000
			CHANNELS 3 Zrotation Yrotation Xrotation
			JOINT LeftLeg
			{
				OFFSET 2.215000 -6.000000 0.000000
				CHANNELS 3 Zrotation Yrotation Xrotation
				JOINT LeftFoot
				{
					OFFSET 2.500000 -6.900000 0.000000
					CHANNELS 3 Zrotation Yrotation Xrotation
					JOINT LeftToeBase
					{
						OFFSET 0.200000 -0.500000 1.950000
						CHANNELS 3 Zrotation Yrotation Xrotation
						End Site
						{
							OFFSET 0.000000 0.000000 0.000000
						}
					}
				}
			}
		}
	}
	JOINT RHipJoint
	{
		OFFSET 0.000000 0.000000 0.000000
		CHANNELS 3 Zrotation Yrotation Xrotation
		JOINT RightUpLeg
		{
			OFFSET -1.800000 -1.400000 0.085000
			CHANNELS 3 Zrotation Yrotation Xrotation
			JOINT RightLeg
			{
				OFFSET -2.215000 -6.000000 0.000000
				CHANNELS 3 Zrotation Yrotation Xrotation
				JOINT RightFoot
				{
					OFFSET -2.500000 -6.900000 0.000000
					CHANNELS 3 Zrotation Yrotation Xrotation
					JOINT RightToeBase
					{
						OFFSET -0.200000 -0.500000 1.950000
						CHANNELS 3 Zrotation Yrotation Xrotation
						End Site
						{
							OFFSET 0.000000 0.000000 0.000000
						}
					}
				}
			}
		}
	}
	JOINT LowerBack
	{
		OFFSET 0.000000 0.000000 0.000000
		CHANNELS 3 Zrotation Yrotation Xrotation
		JOINT Spine
		{
			OFFSET -0.087000 1.940000 -0.288900
			CHANNELS 3 Zrotation Yrotation Xrotation
			JOINT Spine1
			{
				OFFSET 0.000000 1.950000 0.060000
				CHANNELS 3 Zrotation Yrotation Xrotation
				JOINT Neck
				{
					OFFSET 0.000000 0.000000 0.000000
					CHANNELS 3 Zrotation Yrotation Xrotation
					JOINT Neck1
					{
						OFFSET 0.000000 1.600000 0.340000
						CHANNELS 3 Zrotation Yrotation Xrotation
						JOINT Head
						{
							OFFSET 0.000000 1.667000 -0.240000
							CHANNELS 3 Zrotation Yrotation Xrotation
							End Site
							{
								OFFSET 0.000000 0.000000 0.000000
							}
						}
					}
				}
				JOINT LeftShoulder
				{
					OFFSET 0.000000 0.000000 0.000000
					CHANNELS 3 Zrotation Yrotation Xrotation
					JOINT LeftArm
					{
						OFFSET 2.700000 1.550000 -0.730000
						CHANNELS 3 Zrotation Yrotation Xrotation
						JOINT LeftForeArm
						{
							OFFSET 5.450000 0.000000 0.000000
							CHANNELS 3 Zrotation Yrotation Xrotation
							JOINT LeftHand
							{
								OFFSET 3.450000 0.000000 0.000000
								CHANNELS 3 Zrotation Yrotation Xrotation
								JOINT LeftHandIndex1
								{
									OFFSET 0.750000 0.000000 0.000000
									CHANNELS 3 Zrotation Yrotation Xrotation
									End Site
									{
										OFFSET 0.000000 0.000000 0.000000
									}
								}
							}
						}
					}
				}
				JOINT RightShoulder
				{
					OFFSET 0.000000 0.000000 0.000000
					CHANNELS 3 Zrotation Yrotation Xrotation
					JOINT RightArm
					{
						OFFSET -2.700000 1.550000 -0.730000
						CHANNELS 3 Zrotation Yrotation Xrotation
						JOINT RightForeArm
						{
							OFFSET -5.450000 0.000000 0.000000
							CHANNELS 3 Zrotation Yrotation Xrotation
							JOINT RightHand
							{
								OFFSET -3.450000 0.000000 0.000000
								CHANNELS 3 Zrotation Yrotation Xrotation
								JOINT RightHandIndex1
								{
									OFFSET -0.750000 0.000000 0.000000
									CHANNELS 3 Zrotation Yrotation Xrotation
									End Site
									{
										OFFSET 0.000000 0.000000 0.000000
									}
								}
							}
						}
					}
				}
			}
		}
	}
}
MOTION
Frames: 12
Frame Time: 0.016667
-0.645160 17.002110 -0.708160 -3.013737 -36.361905 -0.375161 -14.887915 14.410179 2.900873 8.741005 -1.669437 -10.106179 -5.728448 7.416123 23.567581 -0.308948 5.144516 2.735890 0.865710 0.439940 0.829350 18.287745 -10.898636 2.744459 -5.499648 1.545885 -17.084798 8.679444 -7.267095 22.423126 -0.599267 -3.517830 3.209483 0.115890 -0.235740 0.298860 -3.600278 -3.431188 -7.288336 12.757615 -5.533416 15.940627 -8.065111 -2.837791 10.748030 4.044956 -6.519139 -16.928076 -24.407194 15.397393 53.358830 -4.004450 7.110060 -17.772450 -1.811961 -14.321598 7.641088 -44.443739 -12.596112 -3.387330 -29.843344 -42.176096 6.921020 -3.152247 3.041247 0.966390 -0.232260 0.438600 0.206450 -5.571860 18.183092 10.926540 51.274736 3.828262 -10.578139 51.336870 42.096336 12.811743 1.981662 -1.708980 -0.000560 0.131600 -0.322490 -0.347320 
-0.623440 16.996970 -0.720850 -2.954420 -36.460597 -0.604044 -14.880203 14.459225 2.947277 8.715941 -1.736653 -10.218380 -5.876480 7.493636 23.819502 -0.282635 5.182723 2.723424 0.840560 0.405800 0.805980 18.277231 -10.890833 2.756213 -5.550916 1.631459 -17.428849 8.477791 -7.312197 23.049063 -0.595259 -3.535010 3.207726 0.084900 -0.236850 0.297270 -3.566245 -3.535991 -7.359765 12.927043 -5.792627 17.299197 -8.279654 -2.818677 10.085343 4.362679 -6.774837 -17.613309 -25.254342 15.532556 52.539770 -3.863560 6.809790 -17.852620 -3.001661 -15.529663 7.961592 -41.855161 -11.208499 -4.085756 -31.158963 -42.978737 7.598136 -3.128263 3.049683 0.975050 -0.244650 0.435970 0.201340 -4.857796 19.753968 11.735459 48.861583 2.212988 -11.196525 53.757938 43.765650 14.172517 1.996762 -1.695522 0.001620 0.121930 -0.310250 -0.342420 
-0.601710 16.990770 -0.733300 -2.895722 -36.483152 -0.779666 -14.875948 14.507014 2.994466 8.723069 -1.817550 -10.395883 -6.056332 7.580166 24.057401 -0.246492 5.217611 2.712314 0.810760 0.368950 0.782360 18.264556 -10.875356 2.768833 -5.587086 1.719631 -17.798205 8.305383 -7.357438 23.651197 -0.590671 -3.551192 3.202799 0.050000 -0.239490 0.296030 -3.523023 -3.650401 -7.430792 13.022630 -6.070110 18.597651 -8.433559 -2.835852 9.306221 4.688892 -6.975663 -18.278987 -25.918113 15.560988 51.758527 -3.834540 6.583500 -17.743330 -4.218262 -16.605729 8.253717 -39.361329 -9.802537 -4.638339 -32.550319 -43.510024 8.301905 -3.104501 3.065314 0.976350 -0.256810 0.433770 0.194400 -4.119141 21.174770 12.513137 46.670336 0.556082 -11.716102 55.934420 45.293480 15.502229 2.018772 -1.684771 0.007490 0.107320 -0.299340 -0.334900 
-0.581210 16.983670 -0.744900 -2.829943 -36.468313 -0.876905 -14.873293 14.547380 3.041678 8.744463 -1.901071 -10.602460 -6.299089 7.668656 24.182182 -0.210409 5.244145 2.706111 0.780820 0.330120 0.759530 18.252519 -10.853312 2.783240 -5.612432 1.819686 -18.222886 8.168296 -7.402099 24.217346 -0.584105 -3.565577 3.201505 0.014920 -0.241050 0.292780 -3.482139 -3.761896 -7.497201 13.092726 -6.358951 19.779209 -8.584888 -2.875148 8.403923 4.996728 -7.130920 -18.928523 -26.447450 15.577266 51.034777 -3.759100 6.431640 -17.472650 -5.420349 -17.546426 8.522602 -36.984225 -8.387027 -5.029834 -34.028756 -43.768039 9.018708 -3.080677 3.083486 0.976490 -0.267550 0.429240 0.189300 -3.350307 22.432477 13.240333 44.694231 -1.086191 -12.105199 57.885184 46.629727 16.781118 2.040247 -1.675115 0.011390 0.092580 -0.290650 -0.328590 
-0.562110 16.976340 -0.754900 -2.745728 -36.412554 -0.847069 -14.872511 14.575837 3.087071 8.758408 -1.999654 -10.908200 -6.576148 7.758755 24.272644 -0.165510 5.262652 2.707193 0.753750 0.294990 0.739430 18.241960 -10.824359 2.800111 -5.670751 1.939838 -18.793730 8.083218 -7.464515 24.815565 -0.578205 -3.588720 3.197841 -0.021250 -0.237890 0.292810 -3.447490 -3.863407 -7.557654 13.139794 -6.651906 20.765659 -8.730295 -2.949593 7.413237 5.263545 -7.257266 -19.458076 -26.729457 15.466557 50.146436 -3.736120 6.368480 -16.977350 -6.556694 -18.244121 8.712503 -34.813754 -7.092968 -5.227522 -35.534198 -43.663159 9.694234 -3.062371 3.109544 0.966640 -0.272800 0.422470 0.188540 -2.579216 23.413637 13.835828 42.979414 -2.583361 -12.328942 59.470230 47.693642 17.905130 2.063440 -1.673786 0.020990 0.074950 -0.287360 -0.318220 
-0.546240 16.968640 -0.763520 -2.606187 -36.293565 -0.702963 -14.874361 14.592276 3.133218 8.742835 -2.116190 -11.315731 -6.894913 7.848999 24.318232 -0.130830 5.284871 2.707247 0.717510 0.247420 0.712190 18.232184 -10.788438 2.818490 -5.767920 2.075171 -19.496464 8.017198 -7.542253 25.430846 -0.565805 -3.621959 3.190987 -0.059610 -0.225140 0.294980 -3.416213 -3.957068 -7.615074 13.110468 -6.931918 21.522768 -8.859384 -3.057031 6.348711 5.492693 -7.354669 -19.875523 -26.777226 15.283830 49.183338 -3.752650 6.391690 -16.257090 -7.671518 -18.699192 8.845406 -32.901950 -5.784768 -5.330424 -36.999117 -43.503403 10.349501 -3.056248 3.134741 0.956540 -0.269020 0.407740 0.185430 -1.768746 24.118091 14.299807 41.511934 -3.902432 -12.401063 60.704688 48.480639 18.865035 2.081912 -1.671234 0.022960 0.057900 -0.275840 -0.310270 
-0.533610 16.962640 -0.770240 -2.394635 -36.124115 -0.498388 -14.876665 14.598193 3.175368 8.629120 -2.237008 -11.755899 -7.168023 7.898532 24.280224 -0.103190 5.287425 2.714197 0.681350 0.198460 0.683430 18.224497 -10.751677 2.839921 -5.948617 2.205589 -20.274940 8.028757 -7.638825 25.986018 -0.550530 -3.662541 3.181966 -0.096110 -0.208850 0.299380 -3.393471 -4.034211 -7.666607 13.018737 -7.185683 22.064199 -8.975240 -3.187247 5.273385 5.658300 -7.421513 -20.208074 -26.651155 15.091744 48.220363 -3.646900 6.471710 -15.365010 -8.717413 -18.986022 8.954297 -31.241895 -4.483733 -5.369493 -38.379299 -43.318465 10.964683 -3.055319 3.163164 0.945140 -0.260390 0.389580 0.182830 -0.917456 24.601461 14.656319 40.332325 -5.063595 -12.399636 61.445849 49.128479 19.625035 2.096909 -1.671408 0.023230 0.038510 -0.263620 -0.303340 
-0.524630 16.957270 -0.774780 -2.189471 -35.980043 -0.175253 -14.879957 14.589828 3.210931 8.510681 -2.348820 -12.247327 -7.433341 7.936597 24.170542 -0.081298 5.283995 2.726134 0.635750 0.143550 0.645570 18.220007 -10.710639 2.867030 -6.123372 2.354146 -21.133031 8.073348 -7.735284 26.499868 -0.528380 -3.709545 3.170589 -0.131200 -0.180710 0.301160 -3.382468 -4.089370 -7.711024 12.955414 -7.400488 22.338191 -9.073648 -3.320120 4.307520 5.765182 -7.492719 -20.376285 -26.290149 14.768111 47.005780 -3.609550 6.605570 -14.163150 -9.679083 -19.085180 9.003188 -29.863871 -3.293719 -5.355688 -39.605735 -43.098261 11.500933 -3.069058 3.189516 0.924130 -0.241270 0.361220 0.179210 -0.071046 24.859118 14.875272 39.343119 -5.987090 -12.316259 61.783684 49.620982 20.176584 2.109120 -1.673264 0.017590 0.023790 -0.244680 -0.294860 
-0.520420 16.950780 -0.777160 -1.988657 -35.775458 0.292793 -14.883979 14.562803 3.240914 8.387437 -2.471618 -12.844418 -7.692604 7.964775 24.033791 -0.066164 5.279666 2.742377 0.584940 0.085560 0.599240 18.219962 -10.665784 2.896936 -6.299376 2.501322 -22.052216 8.159436 -7.833990 26.925506 -0.497912 -3.762639 3.162355 -0.162710 -0.137070 0.301750 -3.387370 -4.119203 -7.746024 12.924985 -7.593398 22.254927 -9.147677 -3.486910 3.516378 5.772687 -7.576941 -20.351483 -25.683761 14.314503 45.454106 -3.531900 6.752030 -12.624890 -10.538012 -19.013638 8.986717 -28.728516 -2.260568 -5.285038 -40.734337 -42.857608 11.981862 -3.099250 3.214326 0.892780 -0.208290 0.320820 0.178900 0.818633 24.874826 14.948050 38.495022 -6.671162 -12.143644 61.775401 49.947770 20.520974 2.115448 -1.678852 0.006050 0.014570 -0.221840 -0.284110 
-0.521540 16.944820 -0.776580 -1.780033 -35.614666 0.868696 -14.890555 14.525296 3.269269 8.266892 -2.588459 -13.475373 -7.983176 7.997107 23.837562 -0.049138 5.276584 2.762489 0.533290 0.027010 0.551410 18.220882 -10.617968 2.926669 -6.443172 2.642266 -22.964993 8.204682 -7.880943 27.180835 -0.460521 -3.798789 3.162058 -0.191970 -0.084490 0.304970 -3.394812 -4.135666 -7.775741 12.877911 -7.703866 21.817294 -9.153131 -3.631989 2.935213 5.730848 -7.643403 -20.214570 -24.909163 13.797398 43.788501 -3.526270 6.945780 -10.721390 -11.331076 -18.865367 8.958273 -27.906065 -1.353850 -5.205124 -41.607637 -42.619986 12.340871 -3.139626 3.240390 0.852140 -0.165680 0.275150 0.182850 1.705683 24.767282 14.931897 37.833537 -7.165221 -11.950476 61.308800 50.139169 20.593859 2.119554 -1.690552 -0.006180 0.005830 -0.200550 -0.270650 
-0.526780 16.938570 -0.773810 -1.640448 -35.445895 1.582516 -14.897838 14.473252 3.285928 8.188182 -2.697037 -14.153125 -8.207608 8.004817 23.610325 -0.038726 5.269310 2.786730 0.481390 -0.030910 0.499150 18.226165 -10.565137 2.961650 -6.559799 2.797183 -23.906375 8.331373 -7.938005 27.349987 -0.419119 -3.842992 3.160520 -0.215600 -0.022210 0.310190 -3.417269 -4.129499 -7.791811 12.933316 -7.781568 21.045158 -9.151265 -3.777602 2.588247 5.616213 -7.710582 -19.920871 -23.984728 13.237750 41.873621 -3.512480 7.144530 -8.589070 -12.068478 -18.621136 8.876007 -27.360315 -0.659730 -5.103971 -42.184927 -42.294268 12.531016 -3.192031 3.267180 0.803610 -0.112750 0.221740 0.190490 2.632725 24.489105 14.809620 37.324697 -7.494362 -11.750803 60.508572 50.258150 20.469181 2.117938 -1.709725 -0.021440 -0.001870 -0.178600 -0.255770 
-0.537560 16.931830 -0.770860 -1.458251 -35.259290 2.286575 -14.909528 14.407350 3.300554 8.145525 -2.811940 -14.835544 -8.495193 8.050846 23.435750 -0.027814 5.285479 2.803689 0.428230 -0.087650 0.443660 18.231228 -10.509571 2.992378 -6.703106 2.934331 -24.784906 8.519510 -8.004357 27.436176 -0.374984 -3.896284 3.156379 -0.235700 0.047950 0.317230 -3.436799 -4.108265 -7.801660 12.856913 -7.775743 20.055079 -9.050463 -3.914069 2.487806 5.427351 -7.727664 -19.503432 -22.861860 12.662483 39.862219 -3.536930 7.388530 -6.349420 -12.725260 -18.339250 8.764872 -26.989367 -0.135866 -5.010107 -42.601831 -41.926100 12.614765 -3.255689 3.294938 0.747370 -0.051020 0.162080 0.198740 3.587851 24.084859 14.597084 37.030231 -7.646941 -11.584561 59.311102 50.287001 20.091915 2.111831 -1.732810 -0.037780 -0.008580 -0.154160 -0.239460 
